FILE "Detonator Orgun (1992)(Hot-B)(JP).img" BINARY
  TRACK 01 MODE1/2352
    INDEX 01 00:00:00
  TRACK 02 AUDIO
    PREGAP 00:02:00
    INDEX 01 04:35:13
  TRACK 03 AUDIO
    INDEX 00 04:39:64
    INDEX 01 04:41:63
  TRACK 04 AUDIO
    INDEX 00 06:27:33
    INDEX 01 06:29:32
  TRACK 05 AUDIO
    INDEX 00 08:36:37
    INDEX 01 08:38:36
  TRACK 06 AUDIO
    INDEX 00 10:27:36
    INDEX 01 10:29:35
  TRACK 07 AUDIO
    INDEX 00 12:53:13
    INDEX 01 12:55:12
  TRACK 08 AUDIO
    INDEX 00 18:42:44
    INDEX 01 18:44:43
  TRACK 09 AUDIO
    INDEX 00 19:23:12
    INDEX 01 19:25:11
  TRACK 10 AUDIO
    INDEX 00 20:00:52
    INDEX 01 20:02:51
  TRACK 11 AUDIO
    INDEX 00 22:05:70
    INDEX 01 22:07:69
